ply
format ascii 1.0
element vertex 746
property float32 x
property float32 y
property float32 z
property uchar red
property uchar green
property uchar blue
property uchar alpha
element face 1488
property list uint8 int32 vertex_indices
end_header
0.901691064382551 0.210882970949102 -0.377466835535275 0 216 255 255 
0.943231926182482 0.236325840715079 -0.233372927251383 0 216 255 255 
0.936358241081804 0.151950708754694 -0.316455597362716 0 216 255 255 
0.963847174078038 0.0763913185906366 -0.255269631921501 0 216 255 255 
0.920569612973461 0.0756427606514866 -0.383183256131119 0 216 255 255 
-0.943846114429071 -0.233869615029978 -0.233364093248435 0 216 255 255 
-0.964167457699394 -0.07274576158547 -0.255124582842717 0 216 255 255 
-0.937010217507963 -0.14877456565245 -0.316034645691303 0 216 255 255 
-0.920968626093017 -0.0718284305488759 -0.382958069254283 0 216 255 255 
-0.902556624518461 -0.208217824061991 -0.376876907964237 0 216 255 255 
0.258886865828195 -0.0724374913937492 -0.963187411964612 0 216 255 255 
0.384255884516174 -0.0716274002816635 -0.920443687632655 0 216 255 255 
0.318483922671144 -0.14848581929144 -0.936226399993036 0 216 255 255 
0.378821349355882 -0.207986553871629 -0.901795760625624 0 216 255 255 
0.236783312403529 -0.233891311318348 -0.942988765757938 0 216 255 255 
-0.383104171466347 0.920923969763613 -0.0716231723370895 0 216 255 255 
-0.255373190434146 0.964164221292812 -0.0719129811863514 0 216 255 255 
-0.316486052069594 0.936906050633124 -0.148470694939657 0 216 255 255 
-0.233738751020595 0.943778526002418 -0.233768185418093 0 216 255 255 
-0.37797962017245 0.902068297085139 -0.208335790377213 0 216 255 255 
-0.96371358005709 0.0764886756580551 -0.255744407832578 0 216 255 255 
-0.943067031571459 0.236744761225506 -0.233614605120678 0 216 255 255 
-0.936367540636896 0.152238928301554 -0.316289512115746 0 216 255 255 
-0.901483635226248 0.211398361605272 -0.377673945197785 0 216 255 255 
-0.920893337395623 0.07558721244261 -0.382415584072742 0 216 255 255 
0.942853773337813 -0.23406753396064 0.237146453290331 0 216 255 255 
0.90190467895571 -0.376901803462225 0.210980080192665 0 216 255 255 
0.936434985385475 -0.316025726678607 0.152371839162459 0 216 255 255 
0.963989437025351 -0.254694227247768 0.0765167740371395 0 216 255 255 
0.92073814205399 -0.382675990931983 0.0761577799975013 0 216 255 255 
-0.0709792868005334 -0.920493006487233 0.384258005905498 0 216 255 255 
-0.207558562913567 -0.90192452209152 0.378749536635116 0 216 255 255 
-0.148190834506148 -0.936287963742087 0.318440330942276 0 216 255 255 
-0.0717484875016034 -0.963354774187781 0.258455663756253 0 216 255 255 
-0.233558376526174 -0.943059795720278 0.23682904344714 0 216 255 255 
0.211208487999082 -0.901166043226009 0.378537134832931 0 216 255 255 
0.0763280551434926 -0.920030323312343 0.384340843707156 0 216 255 255 
0.1526827381549 -0.935510001529592 0.318604676596266 0 216 255 255 
0.237194157648458 -0.942098217715101 0.237042572359577 0 216 255 255 
0.0770594322093994 -0.962929694236556 0.258510824148865 0 216 255 255 
0.00261603470106144 -0.129146019098235 -0.991621996472925 0 216 255 255 
0.00264898320910543 0.00243104234003906 -0.999993465171331 0 216 255 255 
0.0678962430513631 -0.0631499065624985 -0.995691794796952 0 216 255 255 
0.133417892667123 0.0024821231783816 -0.991056625615376 0 216 255 255 
0.13174164214366 -0.127287473484933 -0.983077655567492 0 216 255 255 
-0.991048718791641 0.133478229563691 0.00239298647744787 0 216 255 255 
-0.999993610230213 0.00263901670220808 0.00236484627485817 0 216 255 255 
-0.995399003900658 0.0677516030642759 0.0677532609583513 0 216 255 255 
-0.25500496963111 0.0762064253813629 0.963931866544529 0 216 255 255 
-0.383080305370966 0.0757478069267025 0.920603822370636 0 216 255 255 
-0.323223768756367 0.00213390813751446 0.946320122824491 0 216 255 255 
-0.255389560660686 -0.0721492711629919 0.964142232403304 0 216 255 255 
-0.383662586237388 -0.071755276026734 0.920681180989751 0 216 255 255 
-0.255249026215869 -0.963836927792573 0.0765891909943634 0 216 255 255 
-0.38327425185854 -0.92051084188529 0.0758965207786492 0 216 255 255 
-0.323093283101147 -0.946364345111857 0.00227819972617147 0 216 255 255 
-0.255183507064218 -0.964210399146191 -0.0719671742334354 0 216 255 255 
-0.383185147650081 -0.920888342136106 -0.0716480633041324 0 216 255 255 
-0.071781311718635 0.964197740430154 -0.255283666128454 0 216 255 255 
0.0768076864763818 0.963860187736354 -0.255095496085344 0 216 255 255 
0.00262254213826847 0.946382070730311 -0.323038746714201 0 216 255 255 
0.0762986617419741 0.920568235139721 -0.383056503787657 0 216 255 255 
-0.0711737023480084 0.920923043564262 -0.383190152645833 0 216 255 255 
-0.0717587287358859 -0.255114066798421 -0.964244310957781 0 216 255 255 
0.0762184234699392 -0.254847245687592 -0.963972506343502 0 216 255 255 
0.00246396170147893 -0.322757593264286 -0.946478420338941 0 216 255 255 
0.0762002124778341 -0.382838191051592 -0.92066720197013 0 216 255 255 
-0.0712436461332746 -0.382674640772278 -0.921131971698173 0 216 255 255 
0.00260079373065768 -0.945653772178628 0.325164751415282 0 216 255 255 
-0.920547423087263 -0.0714697684785084 0.384036669923272 0 216 255 255 
-0.920041461803276 0.0757073216221566 0.384436941089101 0 216 255 255 
-0.945611141075526 0.00210727562393196 0.325292276168812 0 216 255 255 
-0.962965200572264 0.0762839015267944 0.258608565079166 0 216 255 255 
-0.963371711329464 -0.0723325547502635 0.258229639096174 0 216 255 255 
0.920021474732738 0.384407934414102 0.0760964988878337 0 216 255 255 
0.96291802560112 0.258606140154134 0.0768852221667046 0 216 255 255 
0.945548488263397 0.325471442320207 0.00251646261437431 0 216 255 255 
0.920354347738222 0.384525518161945 -0.0713277501988743 0 216 255 255 
0.963228510807882 0.258812969565729 -0.0721544986840942 0 216 255 255 
-0.962821599808641 0.259005518771618 0.0767483009062427 0 216 255 255 
-0.919851894737549 0.384836168548608 0.075981990127421 0 216 255 255 
-0.945574658395496 0.32539618919947 0.00241260097887948 0 216 255 255 
-0.920134981716555 0.385004080494941 -0.0715759920770561 0 216 255 255 
-0.963447146316232 0.25803593514753 -0.0720184401831909 0 216 255 255 
0.0768596879365883 -0.963853378769175 -0.255105561592765 0 216 255 255 
-0.0716394489242691 -0.964263026731252 -0.255076846511359 0 216 255 255 
0.00262205534360436 -0.94647643211371 -0.322762175941327 0 216 255 255 
0.0763011343926057 -0.920598207111846 -0.382983972389008 0 216 255 255 
-0.0710523560818848 -0.921016551810121 -0.382987880094745 0 216 255 255 
0.920207404494255 0.0754376653380253 0.384092625869 0 216 255 255 
0.920434784522635 -0.0715703520895744 0.384287837716793 0 216 255 255 
0.945618110661394 0.00226129964917191 0.325270981465622 0 216 255 255 
0.963024858780759 0.0764483008894242 0.258337727349044 0 216 255 255 
0.963327620537862 -0.0720611943068278 0.258469875685855 0 216 255 255 
0.258922578493014 0.0767704286566387 -0.962842143577302 0 216 255 255 
0.385113174824698 0.0757980338465344 -0.919751035078246 0 216 255 255 
0.325540903853584 0.00231649467974016 -0.945525086402743 0 216 255 255 
0.384433094320961 0.075659138558431 0.920047035347959 0 216 255 255 
0.258685474110129 0.0764352975876044 0.962932538045462 0 216 255 255 
0.325700056787052 0.00237606941272689 0.945470128108315 0 216 255 255 
0.385160259388869 -0.0714923270923689 0.920076119225794 0 216 255 255 
0.259125310331953 -0.0722477600831795 0.963137542365645 0 216 255 255 
0.38488001726519 -0.919816529227392 0.0761865841480943 0 216 255 255 
0.258830001279085 -0.962849774456735 0.0769866163009328 0 216 255 255 
0.325636214941104 -0.945491771297717 0.00251036649864776 0 216 255 255 
0.384958004868407 -0.920189896731374 -0.0711150624591938 0 216 255 255 
0.258780532137536 -0.963262069416475 -0.0718221253708551 0 216 255 255 
0.133363258704977 0.991063438750831 0.00268908557407574 0 216 255 255 
0.131700029685287 0.983116196473527 -0.127032625112181 0 216 255 255 
0.0678846211139426 0.995703139168467 -0.0629833126652853 0 216 255 255 
0.00267459527787096 0.991631134601402 -0.129074639237414 0 216 255 255 
0.00264099395899959 0.999993162069236 0.00256081041210048 0 216 255 255 
0.131456840723256 0.982541798018525 0.131644827710259 0 216 255 255 
0.0677992003147803 0.995387293268321 0.0678775835773454 0 216 255 255 
-0.207926559289905 -0.377216994986476 -0.90248185182128 0 216 255 255 
-0.147329043114051 -0.495017978706428 -0.856300583534776 0 216 255 255 
-0.233470735066825 -0.233519848188657 -0.943906337441435 0 216 255 255 
-0.148237779139896 -0.315985005445472 -0.937112028556153 0 216 255 255 
-0.340851305648853 -0.340276756706376 -0.876374034825653 0 216 255 255 
-0.292185718706824 -0.470988553788602 -0.832344060979192 0 216 255 255 
0.00277510092204911 -0.501852886363209 -0.864948115294923 0 216 255 255 
0.211269085203261 -0.377278474760834 -0.901679514974286 0 216 255 255 
0.151805725267148 -0.495157414953301 -0.855437612580215 0 216 255 255 
0.152360604757022 -0.316237028861898 -0.936365477394002 0 216 255 255 
0.342442673778741 -0.341211737915707 -0.875389580394349 0 216 255 255 
0.294300098738241 -0.471571739682945 -0.831268267869423 0 216 255 255 
0.00258455717264219 0.991050270842604 0.133463129109092 0 216 255 255 
0.901628029245517 0.379139982598112 -0.208133098046831 0 216 255 255 
0.936239447917443 0.318518843217275 -0.148328559680751 0 216 255 255 
0.90098971867808 0.210979119031627 0.379084376507284 0 216 255 255 
0.935523612414879 0.152289919576781 0.318752683164833 0 216 255 255 
-0.377945212664817 -0.207904571226361 -0.902182194956614 0 216 255 255 
-0.382884283969645 -0.0715219858512036 -0.921023056152159 0 216 255 255 
-0.316347753530289 -0.148323163196114 -0.936976122418002 0 216 255 255 
-0.495915738339776 -0.147465576359431 -0.855757454930795 0 216 255 255 
-0.255488223685608 -0.072301889841111 -0.964104658063981 0 216 255 255 
-0.472069602470472 -0.292195678116542 -0.831727919411429 0 216 255 255 
-0.127334248252013 -0.127476477305247 -0.983633757714546 0 216 255 255 
-0.323406461387929 0.946256880493543 0.00247173914719328 0 216 255 255 
-0.902275768432245 -0.377554867829494 -0.208207516514135 0 216 255 255 
-0.936940249582033 -0.316333132654201 -0.148580735245701 0 216 255 255 
0.496229376244501 -0.148262937177754 -0.855437809542095 0 216 255 255 
0.471505523280032 -0.292212229500808 -0.832042016356282 0 216 255 255 
0.942082078531798 0.236988063051909 0.237312709395079 0 216 255 255 
-0.316571758464835 0.152145394572015 0.936287358980693 0 216 255 255 
-0.383291546451511 0.0756024266718149 -0.920527843573902 0 216 255 255 
-0.323064315198341 0.00215886443260019 -0.946374514032464 0 216 255 255 
-0.502767380000582 0.00255820167973089 -0.864417536792489 0 216 255 255 
-0.255003471345028 0.0761301327487132 -0.963938291825611 0 216 255 255 
-0.128924476359338 0.00240269223902557 -0.991651365057955 0 216 255 255 
0.502969542761883 0.00209286544049699 -0.864301185484631 0 216 255 255 
-0.377858967649691 0.211144676663654 -0.90146555394967 0 216 255 255 
-0.316455459002255 0.152086585682143 -0.936336227373866 0 216 255 255 
-0.495851745766522 0.151828783535428 -0.855031236919079 0 216 255 255 
-0.233948268833086 0.236724222219029 -0.942989469152215 0 216 255 255 
-0.127330346502309 0.131305559308622 -0.983130445862462 0 216 255 255 
-0.0718098149000264 0.258576385561226 -0.963317805938987 0 216 255 255 
0.00275750774083587 0.133275678077481 -0.991074978031522 0 216 255 255 
0.131638043192874 0.131465105349109 -0.98254160046543 0 216 255 255 
0.0771453285819231 0.258607698147447 -0.962896802858339 0 216 255 255 
0.237033313412449 0.236735862939292 -0.942215817744881 0 216 255 255 
0.378898129063952 0.210936719763196 -0.901077982163752 0 216 255 255 
0.496642988878121 0.151879189155636 -0.85456293728866 0 216 255 255 
-0.340823565385709 0.341783488515019 -0.875798108318737 0 216 255 255 
-0.472305289455409 0.294606217572735 -0.830743209866343 0 216 255 255 
-0.20776208856863 0.378837247240827 -0.901840819682543 0 216 255 255 
-0.148320219913633 0.318351219136852 -0.936297778900485 0 216 255 255 
-0.0709675866967368 0.38444295406127 -0.920416679144294 0 216 255 255 
0.00272977681989475 0.325377660810664 -0.945580171909952 0 216 255 255 
0.0763962946681035 0.384582164631706 -0.919923712271857 0 216 255 255 
0.343052481906349 0.342946499682202 -0.874472447189713 0 216 255 255 
0.211737255274966 0.379062948177832 -0.900820873278133 0 216 255 255 
0.472035242550239 0.294381317356905 -0.830976386048495 0 216 255 255 
-0.147473528201465 0.4961815371167 -0.85560200181579 0 216 255 255 
-0.963597450473942 -0.256180279322357 0.0764931553153977 0 216 255 255 
-0.920806209248558 -0.382600435453812 0.0757131283604805 0 216 255 255 
-0.936489743449009 -0.316022136704054 0.15204239576796 0 216 255 255 
-0.292806314944131 0.472150560315862 -0.831467183359973 0 216 255 255 
0.00303537538429494 0.503117326072469 -0.864212366965604 0 216 255 255 
0.152202497706072 0.496071458475433 -0.85483733607962 0 216 255 255 
0.294866649665623 0.47230627280618 -0.830650249740765 0 216 255 255 
0.133565428237104 0.00245844474819324 0.991036810621273 0 216 255 255 
0.00266951653070624 0.00222069911277876 0.999993898975585 0 216 255 255 
0.0679650066798447 -0.0632246501955059 0.995682360117541 0 216 255 255 
0.00268081690357958 -0.129193881289008 0.991615588382297 0 216 255 255 
0.131782955022727 -0.127303551470392 0.983070037319169 0 216 255 255 
-0.129173957694711 0.00217521620494597 0.991619421413637 0 216 255 255 
-0.063040493948106 -0.0633379504642268 0.995999076409174 0 216 255 255 
-0.127254645871733 -0.127465016790413 0.983645545168076 0 216 255 255 
-0.373335731922376 -0.557382036558377 -0.74158273304573 0 216 255 255 
-0.227004441128809 -0.590536465205036 -0.774425533881946 0 216 255 255 
-0.305262857252689 -0.673036067609263 -0.673673711131924 0 216 255 255 
-0.429481689059938 -0.428649914417724 -0.794861003183635 0 216 255 255 
-0.509623656250604 -0.508994853578881 -0.693691019974701 0 216 255 255 
-0.447908991088601 -0.63197185101296 -0.632446344903811 0 216 255 255 
-0.0744446286278612 -0.607084653407918 -0.791141858168272 0 216 255 255 
-0.153357078070937 -0.698406748373099 -0.69907711681802 0 216 255 255 
0.0797226361634734 -0.606996986631096 -0.790694752898512 0 216 255 255 
0.00287911814380659 -0.706829233358119 -0.707377789803729 0 216 255 255 
0.230258313029903 -0.590445505677736 -0.77353376690911 0 216 255 255 
0.157925819352403 -0.698000114848178 -0.698465820149753 0 216 255 255 
0.37389995151121 -0.55746302280861 -0.741237540919046 0 216 255 255 
0.306989771882083 -0.672736067162178 -0.673188482514944 0 216 255 255 
0.429736092141067 -0.429334650353592 -0.794353799007131 0 216 255 255 
0.508890571137677 -0.50946563616941 -0.69388359002652 0 216 255 255 
0.447177204406711 -0.632030166822379 -0.632905754942103 0 216 255 255 
-0.558113889813684 -0.372698963800427 -0.741352560648721 0 216 255 255 
-0.591531206136065 -0.227251434798348 -0.77359346871555 0 216 255 255 
-0.673814579430289 -0.304767308214512 -0.673119301964686 0 216 255 255 
-0.632743423682052 -0.447398818128089 -0.632035861084171 0 216 255 255 
0.557218647370559 -0.372774311037634 -0.741987835566545 0 216 255 255 
0.590814684135179 -0.227654410794358 -0.774022435518392 0 216 255 255 
0.672845087074876 -0.305138801357444 -0.673920644738577 0 216 255 255 
0.631570049193586 -0.447452009365075 -0.633170780206481 0 216 255 255 
-0.607763498177716 -0.0747106539085404 -0.790595392505411 0 216 255 255 
-0.699136282411305 -0.153016607144639 -0.698421816316603 0 216 255 255 
0.607486096197405 -0.0753202945143744 -0.790750736917315 0 216 255 255 
0.698330166594995 -0.154320096616539 -0.698941685555074 0 216 255 255 
-0.607873941994236 0.0795126114888431 -0.790041923279722 0 216 255 255 
-0.707420063371157 0.00255400171437268 -0.706788168245225 0 216 255 255 
0.607733245139119 0.0791828281248512 -0.790183280246006 0 216 255 255 
0.707023050474582 0.00222468118092126 -0.707186431028545 0 216 255 255 
-0.59105752260253 0.230358485074805 -0.773036381029063 0 216 255 255 
-0.698471411549694 0.157950924855126 -0.697988836881164 0 216 255 255 
0.590744901143237 0.22994526038986 -0.773398293818087 0 216 255 255 
0.698260868854386 0.157072166571663 -0.698397370566988 0 216 255 255 
-0.557919229538013 0.374077999308154 -0.740804339840002 0 216 255 255 
-0.673104914705606 0.307338704156162 -0.672660372571379 0 216 255 255 
-0.429676986444627 0.429646985465541 -0.794216885429775 0 216 255 255 
0.430205291320317 0.43017983447977 -0.793642264944469 0 216 255 255 
0.557459545013272 0.374377478577791 -0.740999090131564 0 216 255 255 
0.672572346245983 0.307300137393353 -0.673210470908191 0 216 255 255 
-0.510004285513106 0.508850350309033 -0.693517289408812 0 216 255 255 
-0.63252322585786 0.447492377697705 -0.632189697803354 0 216 255 255 
-0.373442116612942 0.557294264678613 -0.741594836900288 0 216 255 255 
-0.227562222535139 0.591098514647163 -0.773832810607582 0 216 255 255 
-0.0744076468480763 0.607726162222996 -0.790652663939348 0 216 255 255 
0.0799822921411988 0.607553343163367 -0.790241106849641 0 216 255 255 
0.23060221268262 0.59076056511823 -0.773190697896834 0 216 255 255 
0.509381777566531 0.509422832478392 -0.693554526840952 0 216 255 255 
0.374124231833962 0.557465462502648 -0.741122530168405 0 216 255 255 
0.631724943785277 0.447739016287146 -0.632813286810442 0 216 255 255 
-0.305468335679569 0.672947471950914 -0.673669077585983 0 216 255 255 
-0.448055550300591 0.631538949093971 -0.632774875897457 0 216 255 255 
-0.153454969291501 0.698547034113275 -0.69891545291655 0 216 255 255 
0.00304354147135843 0.707038267993938 -0.707168167669152 0 216 255 255 
0.158217475069974 0.69814926964159 -0.698250713372202 0 216 255 255 
0.307223536541983 0.672670434554093 -0.673147423175846 0 216 255 255 
0.447347166868529 0.632024522170983 -0.632790943465087 0 216 255 255 
-0.373389426891908 -0.741103424470176 -0.557983246178955 0 216 255 255 
-0.227040403803014 -0.773858339598964 -0.591265730963114 0 216 255 255 
-0.292496105812781 -0.831698342838719 -0.471935638460465 0 216 255 255 
-0.509796701287826 -0.693351841465428 -0.509283627349734 0 216 255 255 
-0.429100562479446 -0.794817331122554 -0.429112341555814 0 216 255 255 
-0.0744561629324137 -0.790659986107283 -0.607710691561873 0 216 255 255 
-0.147290256017922 -0.855892995706639 -0.495733891373532 0 216 255 255 
0.0798231717106524 -0.7902565270727 -0.607554205500939 0 216 255 255 
0.0028753039159726 -0.864607055384643 -0.502439682144424 0 216 255 255 
0.230187903586681 -0.773319685362783 -0.590753307948126 0 216 255 255 
0.151978002875157 -0.85513331504841 -0.495629952880059 0 216 255 255 
0.374360268021718 -0.740580099193069 -0.558027593975098 0 216 255 255 
0.294524893570113 -0.83105386156368 -0.471809228237022 0 216 255 255 
0.509054554619764 -0.69336095085932 -0.5100130686476 0 216 255 255 
0.429968262794522 -0.794108402548872 -0.429556096369781 0 216 255 255 
-0.57768442707341 -0.577081115853364 -0.577284447634875 0 216 255 255 
-0.693786113855383 -0.509351260890816 -0.509137899119146 0 216 255 255 
-0.632711488826445 -0.631923172658739 -0.447603119918158 0 216 255 255 
0.576960714330313 -0.577222961499379 -0.577866100641767 0 216 255 255 
0.693216730964688 -0.509159490235591 -0.510104339774913 0 216 255 255 
0.632340681101227 -0.63233706138032 -0.447542569436434 0 216 255 255 
-0.741841062485198 -0.372842286202839 -0.557368569053585 0 216 255 255 
-0.774229188902586 -0.2269784272548 -0.590803508555582 0 216 255 255 
-0.832067860579382 -0.292300931102253 -0.471404918245651 0 216 255 255 
-0.794648987699719 -0.429259410544017 -0.429265229133861 0 216 255 255 
0.741102757059476 -0.372962878139687 -0.558269330705855 0 216 255 255 
0.773456049692689 -0.227769086848348 -0.591511811403883 0 216 255 255 
0.831684890292851 -0.292552747397077 -0.47192383238544 0 216 255 255 
0.794908560650622 -0.428738259812444 -0.429305449968289 0 216 255 255 
-0.790969345163859 -0.0745858269536063 -0.607291737911857 0 216 255 255 
-0.856146766866032 -0.147558405086772 -0.495215680173203 0 216 255 255 
0.790648545234391 -0.0754010902255057 -0.607609066574259 0 216 255 255 
0.855529069160817 -0.148168710732624 -0.496100164556105 0 216 255 255 
-0.790505934351351 0.0795662755289644 -0.607263373428454 0 216 255 255 
-0.864702885036513 0.00225024520049624 -0.502277926080768 0 216 255 255 
0.790255448741438 0.078983770162225 -0.607665299680334 0 216 255 255 
0.864697349859972 0.00184990459756996 -0.502289102674293 0 216 255 255 
-0.773644855829015 0.230164811803557 -0.590336407970521 0 216 255 255 
-0.855243979723422 0.151892861798385 -0.495465075994528 0 216 255 255 
0.77333810914173 0.229823497706737 -0.590871050881892 0 216 255 255 
0.855230078204368 0.151169677332592 -0.495710196671428 0 216 255 255 
-0.741029221821438 0.374200578005009 -0.557537887514021 0 216 255 255 
-0.831346548073931 0.294519437699844 -0.471296325137742 0 216 255 255 
0.740429486885117 0.374462084437064 -0.558159126344184 0 216 255 255 
0.830938381644245 0.29439794653373 -0.472091763201488 0 216 255 255 
-0.693790935322301 0.509005538366456 -0.509476490322532 0 216 255 255 
-0.794047157487679 0.430090893460134 -0.429546559362212 0 216 255 255 
-0.577723012674966 0.576814218952138 -0.577512536191757 0 216 255 255 
0.693260517809521 0.509298670210405 -0.509905865753314 0 216 255 255 
0.577074484082247 0.577185483724324 -0.577789936021837 0 216 255 255 
0.794334173144406 0.429774202213097 -0.42933280605089 0 216 255 255 
-0.509805047377395 0.693076630743891 -0.509649740928507 0 216 255 255 
-0.63274168436265 0.631566124842834 -0.448064136065879 0 216 255 255 
-0.373557051705774 0.74090347028092 -0.558136569271892 0 216 255 255 
-0.227208574759836 0.773813659617359 -0.591259607967657 0 216 255 255 
-0.0744473419588222 0.790689420657544 -0.607673473769721 0 216 255 255 
0.0798868430307906 0.79033332434943 -0.607445933186529 0 216 255 255 
0.230477844681667 0.773217121879202 -0.590774505604471 0 216 255 255 
0.509257348389761 0.693169276680971 -0.510071155770556 0 216 255 255 
0.374162238197534 0.740840664584786 -0.557814491776431 0 216 255 255 
0.63211861121377 0.632094475636086 -0.448198506029014 0 216 255 255 
-0.292705475977612 0.831580928631919 -0.472012727618627 0 216 255 255 
-0.429245047667551 0.794647234255772 -0.429282827069745 0 216 255 255 
-0.147477064371138 0.855852832700687 -0.495747693392213 0 216 255 255 
0.00288050662809976 0.864562090025592 -0.502517020583754 0 216 255 255 
0.152024830496767 0.855130262278789 -0.495620860810824 0 216 255 255 
0.294280027135912 0.831371564270696 -0.471402120254604 0 216 255 255 
0.430015630345482 0.794078931683294 -0.429563163553726 0 216 255 255 
-0.207784784699891 -0.902329583460981 -0.377659118499408 0 216 255 255 
-0.340337693807279 -0.876509516365147 -0.340441855129121 0 216 255 255 
-0.233428522832769 -0.943882935244229 -0.233656598046384 0 216 255 255 
0.211330282362674 -0.901624966235069 -0.377374550404481 0 216 255 255 
0.342448757888548 -0.875500520378125 -0.340920871561071 0 216 255 255 
0.237156084275802 -0.942979295927357 -0.233551556282025 0 216 255 255 
-0.558058682195647 -0.74106453484022 -0.373353882167348 0 216 255 255 
-0.471672047728899 -0.831732817470752 -0.292822290853073 0 216 255 255 
-0.673709947589918 -0.672986524474617 -0.305292117160262 0 216 255 255 
-0.591215632492919 -0.773699867552752 -0.227709993568482 0 216 255 255 
0.557893664000995 -0.741239909854191 -0.373252343695156 0 216 255 255 
0.47235072294896 -0.831516609809966 -0.292342741012554 0 216 255 255 
0.673502266416769 -0.673048072211255 -0.305614475030664 0 216 255 255 
0.591493596533877 -0.773625199014693 -0.227241337549641 0 216 255 255 
-0.741927368257429 -0.557249619115344 -0.372848354765417 0 216 255 255 
-0.832055435848506 -0.471299042854608 -0.292506961707959 0 216 255 255 
-0.774063031057246 -0.590681571786808 -0.227861690903542 0 216 255 255 
0.741419937604684 -0.557497571929462 -0.373486527905725 0 216 255 255 
0.832246172765619 -0.471069293822199 -0.292334358858527 0 216 255 255 
0.774364430964391 -0.59050663545288 -0.227290308815751 0 216 255 255 
-0.876192552698417 -0.340871278594861 -0.340723817342659 0 216 255 255 
0.876339781869314 -0.340363833799819 -0.340852434653146 0 216 255 255 
0.902336527852609 -0.208043756570096 -0.377499922250033 0 216 255 255 
0.943949802111944 -0.23342712343647 -0.233387719852261 0 216 255 255 
0.937010737643166 -0.148431834380298 -0.316194218978609 0 216 255 255 
0.920731892647883 -0.0719009126649837 -0.383513595915856 0 216 255 255 
0.964075007769073 -0.0722941371140266 -0.255602275284543 0 216 255 255 
-0.946494362275724 0.00196838665485181 -0.322714240724155 0 216 255 255 
0.946352463702175 0.00210345134503872 -0.323129267181962 0 216 255 255 
-0.875186032155982 0.342784311034427 -0.341390791396537 0 216 255 255 
0.875530747793379 0.342231713802137 -0.341061151950296 0 216 255 255 
-0.741473397494106 0.557515643614676 -0.373353420957498 0 216 255 255 
-0.83143421342814 0.472298135744761 -0.292661255748506 0 216 255 255 
0.74106794523321 0.557778846324843 -0.373765060992916 0 216 255 255 
0.831806218789455 0.471815611643781 -0.292382964271539 0 216 255 255 
-0.673639237766427 0.67291320093459 -0.305607910991396 0 216 255 255 
-0.773949675453411 0.590934823071742 -0.227589972140858 0 216 255 255 
-0.558161526536345 0.740849459390291 -0.37362688266382 0 216 255 255 
0.673483251599824 0.673016085828442 -0.305726828649551 0 216 255 255 
0.557895871256852 0.74113996146815 -0.373447467350746 0 216 255 255 
0.773917641540183 0.59103176174618 -0.227447121101602 0 216 255 255 
-0.471842215168859 0.831635032004516 -0.292825988827054 0 216 255 255 
-0.591149333819919 0.773766151629356 -0.227656881928191 0 216 255 255 
-0.340526176211893 0.876386631270612 -0.340569719046944 0 216 255 255 
-0.208085139052704 0.902180427605654 -0.377850045658626 0 216 255 255 
0.342807524573562 0.875257100922735 -0.341185215878781 0 216 255 255 
0.211349772479073 0.901674801413639 -0.377244541624674 0 216 255 255 
0.472442336561095 0.831399360357987 -0.292528119977331 0 216 255 255 
0.591433650232214 0.773644822907769 -0.227330540808873 0 216 255 255 
-0.14837344629662 0.936944981234397 -0.316416399693257 0 216 255 255 
0.152432547408875 0.936366750528845 -0.316198585853983 0 216 255 255 
0.236918243834821 0.943050551990771 -0.233505219972907 0 216 255 255 
-0.377556394879193 -0.902266093580816 -0.208246662251567 0 216 255 255 
-0.316163983602127 -0.937032863218209 -0.148356546317975 0 216 255 255 
-0.495720671130318 -0.855672464190346 -0.14860877862834 0 216 255 255 
-0.126995145255091 -0.983673722499919 -0.127505606667212 0 216 255 255 
0.0027321018623481 -0.991648364110666 -0.128941004776389 0 216 255 255 
0.13180684043053 -0.983095208252457 -0.127084252240209 0 216 255 255 
0.318787160415314 -0.93614199661172 -0.148367204045013 0 216 255 255 
0.379447304312363 -0.901517272962051 -0.208052794538602 0 216 255 255 
0.496539571853736 -0.855391782142428 -0.147487951046551 0 216 255 255 
-0.699016207563318 -0.698211245390241 -0.154520506425265 0 216 255 255 
-0.607812528192378 -0.79049337070559 -0.0753881845771791 0 216 255 255 
0.699165458283531 -0.698172930591653 -0.154017553322396 0 216 255 255 
0.608229396847089 -0.79023946395547 -0.0746847562326247 0 216 255 255 
-0.855860623894785 -0.495472174579779 -0.148355145286354 0 216 255 255 
-0.791089123636753 -0.607031458820384 -0.0754322943524289 0 216 255 255 
0.856258873168954 -0.49503846698042 -0.147502528103532 0 216 255 255 
0.791260978390536 -0.606879922091756 -0.0748468154893904 0 216 255 255 
-0.920986429624441 -0.382950715133638 -0.0716407084452908 0 216 255 255 
-0.964222445669369 -0.255102752204623 -0.0720920085837889 0 216 255 255 
0.902466763522837 -0.377227539747661 -0.207972910583857 0 216 255 255 
0.921175379459204 -0.382565701278849 -0.0712674519047384 0 216 255 255 
-0.942065156374834 0.237160924352836 0.23720715886037 0 216 255 255 
-0.935615333012393 0.152277974230891 0.31848907068198 0 216 255 255 
-0.983612930038142 -0.127609413693501 -0.12736197772109 0 216 255 255 
0.983671704916313 -0.127243546377624 -0.127274081315267 0 216 255 255 
0.964297120333311 -0.254923005496535 -0.0717280847133396 0 216 255 255 
-0.0716856376369369 0.258513792966156 0.96334385362359 0 216 255 255 
0.077232392323139 0.258477633979016 0.962924746801066 0 216 255 255 
0.00299204856845216 0.325265774625016 0.945617871502148 0 216 255 255 
-0.991650471979064 0.00254008923693361 -0.128928122071789 0 216 255 255 
-0.946436328826976 -0.322882945346291 0.00219404845942997 0 216 255 255 
0.991640314382809 0.00243419341543844 -0.129008857644781 0 216 255 255 
-0.316466748601879 -0.936313612772995 0.152202279437099 0 216 255 255 
-0.983097988610192 0.131549614046722 -0.127327139552115 0 216 255 255 
0.983101813938247 0.131574377954384 -0.127273900427991 0 216 255 255 
-0.90148235165117 0.379331233161669 -0.208415454186965 0 216 255 255 
-0.855322376760004 0.496421657181222 -0.148285218875984 0 216 255 255 
0.855332818265049 0.496451014963179 -0.14812660879921 0 216 255 255 
-0.698818091238226 0.698399884421488 -0.154564119664742 0 216 255 255 
-0.790408351190501 0.607896846685391 -0.0755994914862616 0 216 255 255 
0.698944860412057 0.698442181689518 -0.153797926717707 0 216 255 255 
0.790696996202681 0.607616662663141 -0.0748296594310972 0 216 255 255 
-0.49614821358801 0.855493239797773 -0.14821467478077 0 216 255 255 
-0.607884690159 0.790423139642738 -0.0755425333962826 0 216 255 255 
0.496531412207543 0.85536213097129 -0.147687259299686 0 216 255 255 
0.379206997590553 0.901676677196816 -0.207799983258557 0 216 255 255 
0.608052167510038 0.790370713558127 -0.0747390386629172 0 216 255 255 
-0.127376758952166 0.983627024149883 -0.127485949266964 0 216 255 255 
0.237105839208805 0.942083500777657 0.237189367618888 0 216 255 255 
0.0767892526338733 0.962857321775823 0.258860550845606 0 216 255 255 
0.152393438076811 0.935429436330043 0.318979515704641 0 216 255 255 
0.258954906146505 0.963195259033548 -0.0720891035871691 0 216 255 255 
0.384870497305279 0.920224339521608 -0.0711443046641564 0 216 255 255 
-0.129206349598911 -0.991614734096789 0.00237864704349777 0 216 255 255 
0.00266719217811169 -0.99999346192176 0.00241198915082022 0 216 255 255 
-0.0630151480258689 -0.9957130836932 0.0677089843958909 0 216 255 255 
0.133518805457855 -0.991042757390486 0.00259026945207009 0 216 255 255 
0.0679269137229389 -0.995388324062086 0.0677346304568873 0 216 255 255 
-0.502792754212633 -0.864404349178654 0.00195495598141212 0 216 255 255 
0.318825280111653 -0.935451156282179 0.152582753578519 0 216 255 255 
0.50352666045567 -0.863974721667977 0.0028020803897696 0 216 255 255 
-0.707488793851112 -0.706721546647442 0.00185519698701074 0 216 255 255 
-0.607607825864162 -0.790324232340963 0.0787373872802139 0 216 255 255 
0.707680870391039 -0.706527089073002 0.00254001210722805 0 216 255 255 
0.608022891604074 -0.789915418761306 0.0796305867998761 0 216 255 255 
-0.864864964539369 -0.501997286177928 0.00248235281601308 0 216 255 255 
-0.790617467696488 -0.607190212229342 0.0790145258362179 0 216 255 255 
0.865112867315665 -0.50157088579471 0.00237657045815288 0 216 255 255 
0.790802771900409 -0.606881538879096 0.0795299039113194 0 216 255 255 
0.946521894295023 -0.322629545744205 0.00253253754552626 0 216 255 255 
-0.99159662640318 -0.129346797365759 0.00229225181043955 0 216 255 255 
0.991649000720925 -0.128938285433309 0.00262721548216508 0 216 255 255 
0.999993537237413 0.00255178315893265 0.00250427026171071 0 216 255 255 
0.995708543059838 -0.0630521137961527 0.0677413409800874 0 216 255 255 
0.991086759912686 0.133195581499889 0.00238755970704259 0 216 255 255 
-0.863985275477631 0.503512376960009 0.00199878795022281 0 216 255 255 
0.864410786554981 0.502779863410188 0.00238309969773572 0 216 255 255 
-0.707170393711989 0.707039851585301 0.00196746655217448 0 216 255 255 
-0.790125076379357 0.60781976923633 0.0790994966022943 0 216 255 255 
0.707327671684408 0.706880166298271 0.00268145039716921 0 216 255 255 
0.790330284299047 0.607482181752101 0.0796409330395647 0 216 255 255 
-0.502522292146445 0.864561092940787 0.00217486184646607 0 216 255 255 
-0.607620356573275 0.790272798726408 0.0791557689741744 0 216 255 255 
0.503535184053001 0.863970241257823 0.00264850478910846 0 216 255 255 
0.607918518120988 0.789986264181308 0.0797246207971555 0 216 255 255 
0.236963287185276 -0.233609105796803 0.943013507154657 0 216 255 255 
0.378902671217356 -0.207664009024564 0.901835923957909 0 216 255 255 
0.318672618913731 -0.148366621273185 0.936181086593497 0 216 255 255 
-0.383766523927234 0.92029396830333 0.0760388682797174 0 216 255 255 
-0.255178235508912 0.963861533273943 0.0765154119884967 0 216 255 255 
-0.129120687665743 0.991625453274251 0.00255521669494793 0 216 255 255 
-0.0630671820102424 0.996010389837555 -0.063133142188096 0 216 255 255 
-0.0630707965439432 0.99569860512848 0.0678698967737239 0 216 255 255 
0.258806948655628 0.962860979938321 0.0769239316547966 0 216 255 255 
0.32563544755545 0.945491877336021 0.00256903710535867 0 216 255 255 
0.384801648349735 0.919844951037973 0.0762404559199988 0 216 255 255 
0.00270164402565709 -0.991074905164563 0.13327776239022 0 216 255 255 
-0.127143725342775 -0.983114185371353 0.131607787058606 0 216 255 255 
0.131666044746198 -0.98253213539701 0.13150779893574 0 216 255 255 
-0.377510834297522 -0.901638276520928 0.211029868134602 0 216 255 255 
-0.496106776725095 -0.8549312495654 0.151558483844917 0 216 255 255 
0.378837022593701 -0.90107684262478 0.211051317389869 0 216 255 255 
0.496386451953263 -0.854708977370733 0.151896064087679 0 216 255 255 
-0.698578820837977 -0.698087515918999 0.157037205889006 0 216 255 255 
-0.59116288495137 -0.773061854180936 0.230002364455703 0 216 255 255 
0.698675591802885 -0.697813528636027 0.1578224320865 0 216 255 255 
0.591077506179115 -0.773059251656911 0.23023042995064 0 216 255 255 
-0.855359607559491 -0.495410462027532 0.151419159722152 0 216 255 255 
-0.77370303088852 -0.590452151647713 0.229671834155137 0 216 255 255 
0.855248153046258 -0.495472211448028 0.151846096282405 0 216 255 255 
0.773523208478824 -0.590466837362394 0.23023908423704 0 216 255 255 
-0.90201862254123 -0.376829037804779 0.210622634851923 0 216 255 255 
-0.942993626992432 -0.23397087750976 0.236684827877173 0 216 255 255 
-0.377449896499355 -0.208192127790383 0.90232310739854 0 216 255 255 
-0.2338467331028 -0.234083532696186 0.943673607347325 0 216 255 255 
-0.316176376424728 -0.148462992138079 0.93701182221863 0 216 255 255 
-0.983090646788641 -0.127352768045639 0.131581500638828 0 216 255 255 
0.983120992564867 -0.127136630257814 0.131563801589161 0 216 255 255 
-0.991051534272683 0.00221748267330163 0.133460351407627 0 216 255 255 
0.991097536730988 0.00238947981259842 0.133115340096198 0 216 255 255 
0.995298445974661 0.0684886195835177 0.0684855521787989 0 216 255 255 
-0.982534434342935 0.131516779368473 0.131639927443084 0 216 255 255 
0.982487809033851 0.131744564902968 0.131760079991833 0 216 255 255 
-0.936428741567622 0.316685200143378 0.151035160921602 0 216 255 255 
-0.901027175509457 0.378991709171152 0.210985627306669 0 216 255 255 
-0.854486462857921 0.496792226134304 0.151821375158044 0 216 255 255 
0.854681730868258 0.496387326676868 0.152046438909716 0 216 255 255 
0.901128986453881 0.378661590276225 0.2111434864272 0 216 255 255 
-0.698372799929656 0.698288393785047 0.157059047236487 0 216 255 255 
-0.773091041650025 0.591051056722986 0.2301915861519 0 216 255 255 
0.698407373500999 0.698046702795659 0.157978380309658 0 216 255 255 
0.773149871549366 0.590853442305016 0.230501118140274 0 216 255 255 
-0.496177488542499 0.854826849305332 0.151915464781517 0 216 255 255 
-0.591023603467878 0.773089676369591 0.230266629553381 0 216 255 255 
0.49653203908451 0.854607381919339 0.151991839943003 0 216 255 255 
0.591113868201148 0.772945219518805 0.230519754670429 0 216 255 255 
-0.0720081446174978 0.963231872631704 0.258841226793452 0 216 255 255 
0.00238355937234681 0.945446856864634 0.325767547588385 0 216 255 255 
-0.377697469258147 0.901484079872856 0.211354422558243 0 216 255 255 
-0.127308041720725 0.983075447436718 0.131738244137462 0 216 255 255 
-0.234059527498872 0.942841460288078 0.237203310227661 0 216 255 255 
-0.127086592651195 0.131444989190013 0.983143351330823 0 216 255 255 
-0.0629598711563089 0.0675329713275319 0.995728533706372 0 216 255 255 
0.378856304417234 0.901043102655208 0.211160722645512 0 216 255 255 
-0.340902334186277 -0.875648391769969 0.342088944027496 0 216 255 255 
-0.471914404752918 -0.831125217917253 0.294154802489185 0 216 255 255 
0.343054584167935 -0.874494590262065 0.342887933378504 0 216 255 255 
0.472115942157016 -0.830975358603692 0.29425477797707 0 216 255 255 
-0.673230062987482 -0.672901680909337 0.306534611861242 0 216 255 255 
-0.557903526143156 -0.740975132010436 0.373763015566815 0 216 255 255 
-0.429441196057734 -0.794466997836611 0.429420254469677 0 216 255 255 
0.430246549714623 -0.793730351535481 0.429975999298895 0 216 255 255 
0.673139266763274 -0.672866008051962 0.306812859598478 0 216 255 255 
0.557639838150512 -0.7411101890978 0.373888723432073 0 216 255 255 
-0.831289634915096 -0.471487048145502 0.294374781004688 0 216 255 255 
-0.7408920680655 -0.557760957764336 0.374140281117822 0 216 255 255 
0.831079956285702 -0.471742536351611 0.294558099789435 0 216 255 255 
0.741269281309187 -0.557417218130837 0.373905298497794 0 216 255 255 
-0.875729096222951 -0.340827523076835 0.341956313931045 0 216 255 255 
-0.794385683150894 -0.429442306221688 0.429569554859547 0 216 255 255 
0.875642116762746 -0.340769857533309 0.342236967042621 0 216 255 255 
0.794207460000343 -0.429441988721124 0.429899284452845 0 216 255 255 
-0.901614595548101 -0.20823731379132 0.379114705252512 0 216 255 255 
0.90186665266139 -0.207968385623156 0.378662525290339 0 216 255 255 
-0.900926833471761 0.211460558266751 0.378965560834259 0 216 255 255 
-0.874677574440846 0.342992424515984 0.342482485998955 0 216 255 255 
0.874759498082889 0.342656794862191 0.342609849567233 0 216 255 255 
-0.830575446478131 0.472721966863636 0.294410105075125 0 216 255 255 
-0.793454372212565 0.430531229141321 0.430200354283524 0 216 255 255 
0.830653293780102 0.472367330639031 0.294760241145633 0 216 255 255 
0.793588099719809 0.430250948951074 0.430234085123556 0 216 255 255 
-0.673061541511387 0.672679627646631 0.307391519807225 0 216 255 255 
-0.740999396977156 0.557633057605266 0.374118366717599 0 216 255 255 
0.673051271020811 0.672731803437405 0.307299811785669 0 216 255 255 
0.740973499324136 0.557590209852092 0.374233501452992 0 216 255 255 
-0.472091374204525 0.830863893569098 0.294608731835686 0 216 255 255 
-0.557990940092076 0.740612116491557 0.374351552168537 0 216 255 255 
-0.340810144489038 0.875555502158425 0.342418399973297 0 216 255 255 
-0.429566146465704 0.794019118279226 0.43012308539369 0 216 255 255 
0.472258013302909 0.830800567370226 0.294520234674935 0 216 255 255 
0.34294422336929 0.874520302134722 0.342932742497513 0 216 255 255 
0.430355977812996 0.793473827959516 0.430339790137052 0 216 255 255 
0.557749283535761 0.740861789554435 0.374217616058527 0 216 255 255 
0.0759886135400882 -0.382447098476679 0.920847215259588 0 216 255 255 
0.21155215566588 -0.377632000520094 0.901465128090269 0 216 255 255 
0.152545691286177 -0.316276029332646 0.936322169212446 0 216 255 255 
-0.20793872759903 0.901634353770477 0.37923157457493 0 216 255 255 
-0.0712246904910723 0.920209105241693 0.384892052625366 0 216 255 255 
0.0761088134984575 0.919868947267751 0.384770346471664 0 216 255 255 
0.211075244079543 0.901072083002428 0.378835011860367 0 216 255 255 
-0.147338696306819 -0.855733281254018 0.49599516628206 0 216 255 255 
-0.292315277037353 -0.831859611493965 0.471763422177097 0 216 255 255 
0.00290708165611234 -0.864331171613789 0.502913955371031 0 216 255 255 
0.152049685679016 -0.854925161915874 0.495966956738186 0 216 255 255 
0.294483456067629 -0.83104889562372 0.471843845362922 0 216 255 255 
-0.509791137314851 -0.693832922146858 0.508633192184872 0 216 255 255 
-0.632488162832821 -0.632320297040582 0.447357866288531 0 216 255 255 
-0.373246821609323 -0.741728994820335 0.557246952102318 0 216 255 255 
-0.227075508702285 -0.774167548677763 0.590847331819568 0 216 255 255 
-0.0744417955922986 -0.79075336277433 0.607590950905609 0 216 255 255 
0.0798476396903874 -0.790331546265567 0.607453405086394 0 216 255 255 
0.230467287304223 -0.773344499605016 0.590611879488218 0 216 255 255 
0.509584978225004 -0.69354098489452 0.509238006821217 0 216 255 255 
0.374132465547294 -0.741269406457272 0.557264611198802 0 216 255 255 
0.632087917492007 -0.632535771016106 0.447618863820836 0 216 255 255 
-0.693840455196601 -0.509723283065487 0.508690927257825 0 216 255 255 
-0.577726150003821 -0.577640591875134 0.5766828349379 0 216 255 255 
0.69351607118013 -0.509804856280025 0.509051810599788 0 216 255 255 
0.577410389689304 -0.577601189561394 0.577038435772503 0 216 255 255 
-0.83145818054242 -0.292900124009437 0.472108226172955 0 216 255 255 
-0.741608836100823 -0.373402884349195 0.557302328484636 0 216 255 255 
0.831737783585785 -0.292481805264517 0.471875003998997 0 216 255 255 
0.741557425524034 -0.373254733423412 0.557469956353413 0 216 255 255 
-0.855691002139665 -0.147494310997141 0.496021475729091 0 216 255 255 
-0.774135808502681 -0.227408197493247 0.59076009404236 0 216 255 255 
0.855716437208354 -0.148358964577076 0.495720023614424 0 216 255 255 
0.774194876423224 -0.227490262690024 0.590651952762393 0 216 255 255 
0.318933430179462 0.152265811244183 0.935465933111195 0 216 255 255 
-0.864290598024834 0.00294144472245513 0.502982996931619 0 216 255 255 
-0.790613702761564 -0.0750646906215394 0.607696041964861 0 216 255 255 
0.864345702266174 0.00139072981937455 0.50289505674094 0 216 255 255 
0.79070034171748 -0.0755332724154258 0.607525238470269 0 216 255 255 
-0.854745211177675 0.152577023932558 0.496114653528224 0 216 255 255 
-0.790403905365007 0.0796644284354789 0.607383309814514 0 216 255 255 
0.854785491070086 0.151614009086971 0.496340922469563 0 216 255 255 
0.790513960459361 0.0789078266073016 0.60733884764136 0 216 255 255 
-0.830451876138738 0.295426554083587 0.472304747928357 0 216 255 255 
-0.772951875736628 0.231042215945943 0.590901154099654 0 216 255 255 
0.831064163590129 0.294298157919689 0.471932546439269 0 216 255 255 
0.773159993571563 0.230345727115017 0.590900793482749 0 216 255 255 
-0.693243344890923 0.509554402207555 0.50967369711404 0 216 255 255 
-0.740912463592326 0.37449402869001 0.557496398786759 0 216 255 255 
0.693149170811749 0.509624074084839 0.509732104588186 0 216 255 255 
0.740924878597648 0.374434159534868 0.557519718267141 0 216 255 255 
0.995609128146817 0.0684777306213546 -0.0638218023383312 0 216 255 255 
-0.632776325792489 0.631787760197266 0.447702611860517 0 216 255 255 
-0.509811569266314 0.693149999517687 0.509543437537905 0 216 255 255 
-0.577668407911205 0.57709314452606 0.57728846281873 0 216 255 255 
0.632384319603302 0.632189755219077 0.447689019443293 0 216 255 255 
0.509732595976878 0.69308571151143 0.509709884354853 0 216 255 255 
0.577309719962538 0.577408152818533 0.577332288169139 0 216 255 255 
-0.292991938155118 0.831038532625329 0.472789641567873 0 216 255 255 
-0.373523486853099 0.740978853722813 0.558058962135568 0 216 255 255 
-0.147708720521367 0.855264995476273 0.496692317103808 0 216 255 255 
-0.227368430539498 0.773511267006114 0.591593751083728 0 216 255 255 
0.00278729290730016 0.863952528490232 0.503564819452816 0 216 255 255 
-0.0745635011599649 0.790273416060343 0.608200160469217 0 216 255 255 
0.152011151362428 0.854633909663257 0.496480464359049 0 216 255 255 
0.0798599447330437 0.789951586411394 0.607945818469367 0 216 255 255 
0.294420021897743 0.830940050141415 0.472075063452195 0 216 255 255 
0.230516096360585 0.773009586111857 0.591031120483356 0 216 255 255 
0.374226761672487 0.740925962994273 0.557657893787616 0 216 255 255 
0.996014949637187 -0.0630697486813758 -0.0630586003089959 0 216 255 255 
0.0679713386956535 -0.995694601779027 -0.0630247410156489 0 216 255 255 
-0.305480943477599 -0.673766273374116 0.672844435016454 0 216 255 255 
-0.448140191656606 -0.632705819713618 0.631548081349111 0 216 255 255 
-0.153525789467972 -0.698952434329809 0.698494470107492 0 216 255 255 
0.00284661757016921 -0.70716698762284 0.707040269092096 0 216 255 255 
0.158034760469368 -0.698328635342786 0.698112711885955 0 216 255 255 
0.30721069875271 -0.67320485170014 0.67261882117163 0 216 255 255 
0.447614562053084 -0.632843285585512 0.63178307321241 0 216 255 255 
-0.509836497747644 -0.509724624005167 0.692998424168606 0 216 255 255 
-0.632805793091287 -0.448087785984098 0.631485106298888 0 216 255 255 
-0.373634315941881 -0.558218020555657 0.740803141260415 0 216 255 255 
-0.227283933903593 -0.591333169915217 0.773735314080907 0 216 255 255 
-0.0746143645401838 -0.607653251782272 0.79068921920196 0 216 255 255 
0.0797799194326904 -0.607460073886476 0.790333254378626 0 216 255 255 
0.230459611554487 -0.590797780283855 0.773204772854562 0 216 255 255 
0.509509927336136 -0.50999965223585 0.693036263932886 0 216 255 255 
0.374380067191393 -0.557968665629731 0.740614483395258 0 216 255 255 
0.632694356785488 -0.447415026146744 0.632073486925637 0 216 255 255 
-0.673739451511334 -0.305647443562478 0.672795680803308 0 216 255 255 
-0.55828543379935 -0.373617149482393 0.740760999227637 0 216 255 255 
0.673637773359934 -0.30579957013192 0.67282835905736 0 216 255 255 
0.558355289592407 -0.373639313101818 0.740697170050596 0 216 255 255 
-0.698936601094123 -0.154380601025153 0.698321877348543 0 216 255 255 
-0.591380280312766 -0.227594091962302 0.773608131569123 0 216 255 255 
0.699081045079813 -0.154016507217552 0.698257697206618 0 216 255 255 
0.591467897446994 -0.227408142401439 0.773595831609561 0 216 255 255 
-0.707303572887998 0.00252992742106681 0.706904832406411 0 216 255 255 
-0.607690557317337 -0.0750294388161344 0.790621269258131 0 216 255 255 
0.707450738176589 0.00238701108789432 0.706757732275279 0 216 255 255 
0.608138353963807 -0.0752390284454718 0.790256952286176 0 216 255 255 
-0.698300158673403 0.158496010974518 0.698036292617868 0 216 255 255 
-0.607802142165405 0.0795555763232028 0.790092835587478 0 216 255 255 
0.698482335205546 0.157836674526635 0.698003751455121 0 216 255 255 
0.608015671919267 0.0794189443024429 0.789942279188796 0 216 255 255 
-0.672981668945463 0.30771439954575 0.672611923290327 0 216 255 255 
-0.590909516873584 0.230589166094457 0.773080753129047 0 216 255 255 
0.673025047216742 0.3071042342602 0.672847339310601 0 216 255 255 
0.590939365653285 0.230081106743909 0.773209304804514 0 216 255 255 
-0.632726376110819 0.447592072647109 0.631916098016149 0 216 255 255 
-0.509825567118097 0.509252953085546 0.693353154597555 0 216 255 255 
-0.557826322382046 0.374275384718485 0.740774602955887 0 216 255 255 
0.631990821747169 0.448127099737116 0.63227287328843 0 216 255 255 
0.509545917030289 0.509776661601894 0.693173860528846 0 216 255 255 
0.557755923702216 0.374522326895772 0.740702803665522 0 216 255 255 
-0.448287855958378 0.631921445714809 0.63222824270598 0 216 255 255 
-0.305643835567306 0.67304327405964 0.673493751022938 0 216 255 255 
-0.373714955363412 0.557790849457626 0.741084182265284 0 216 255 255 
-0.153676135123503 0.698372328169233 0.699041441886436 0 216 255 255 
-0.227326528445752 0.591039399424096 0.77394723770605 0 216 255 255 
0.00295833174491144 0.70678765376037 0.707419010533973 0 216 255 255 
-0.0744440660869597 0.607575783207821 0.790764802807055 0 216 255 255 
0.158217588766007 0.697943133665137 0.698456732873671 0 216 255 255 
0.0799978042312729 0.607390105179369 0.790365011863426 0 216 255 255 
0.30732097444983 0.67272359788824 0.673049808180493 0 216 255 255 
0.230637579223944 0.590648068190497 0.773266090146686 0 216 255 255 
0.447782681662086 0.632366105785939 0.632141638396804 0 216 255 255 
0.374249166386911 0.557534205007328 0.741007727227891 0 216 255 255 
-0.292804432903668 -0.472143255603016 0.831471984732676 0 216 255 255 
-0.429396857209546 -0.429320448276987 0.794544884679466 0 216 255 255 
-0.147575024205584 -0.495807696128189 0.855801186488995 0 216 255 255 
0.00272731715711229 -0.5024148620442 0.864621957052845 0 216 255 255 
0.151949552906882 -0.495535580309192 0.855193060030453 0 216 255 255 
0.294628007792695 -0.471797113750654 0.831024186748459 0 216 255 255 
0.430124525835778 -0.42924677144866 0.794191036159737 0 216 255 255 
-0.472282015509831 -0.292767058592748 0.831406339720166 0 216 255 255 
-0.340636565284972 -0.340555842142026 0.876349118485539 0 216 255 255 
-0.207751100749271 -0.377520619359875 0.902395290828617 0 216 255 255 
-0.0710906402392814 -0.382837740574573 0.921076014235945 0 216 255 255 
0.34260359656152 -0.340877612477243 0.875456782373491 0 216 255 255 
0.472567194112298 -0.292553774525164 0.831319369971858 0 216 255 255 
-0.495905359025618 -0.147600166451308 0.855740039031646 0 216 255 255 
0.496594142244251 -0.14765471778635 0.855331330265855 0 216 255 255 
-0.502801035490646 0.00250008834417252 0.864398129208084 0 216 255 255 
0.503417792888018 0.00277171859280596 0.864038022934903 0 216 255 255 
-0.495894512940087 0.152096570875211 0.854958604641068 0 216 255 255 
0.496143091560716 0.151527626899142 0.85491565623216 0 216 255 255 
-0.471812254067503 0.294377298560699 0.831104435624188 0 216 255 255 
-0.429264687116193 0.429794557950544 0.79435997639731 0 216 255 255 
-0.34097859238034 0.3422377644224 0.875560542524966 0 216 255 255 
-0.377942985274497 0.211299296534761 0.901394101834266 0 216 255 255 
0.472375564728744 0.294565766528209 0.830717593797467 0 216 255 255 
0.430359736584686 0.430223914106761 0.793534626544103 0 216 255 255 
0.343092511201368 0.342841405748949 0.874497949348432 0 216 255 255 
0.379351557396518 0.211077254727225 0.900854269588013 0 216 255 255 
-0.292856989565427 0.472224384467687 0.831407407224473 0 216 255 255 
-0.14745626770807 0.496094723483268 0.855655312840127 0 216 255 255 
-0.207756466655695 0.378987210894445 0.901779105326468 0 216 255 255 
0.00312575914311042 0.502996982363662 0.864282093636893 0 216 255 255 
-0.0708423477067959 0.38456027147944 0.920377316745218 0 216 255 255 
0.152349193523345 0.496055196871619 0.854820643130393 0 216 255 255 
0.0765774314584976 0.384396914558357 0.919986173943093 0 216 255 255 
0.294635373187881 0.471906444090737 0.830959501049171 0 216 255 255 
0.211442862560378 0.378544699556139 0.901107902339341 0 216 255 255 
-0.0718478017307345 -0.25572121774408 0.964076830812431 0 216 255 255 
0.0025482277483536 -0.323113306459377 0.946356820509058 0 216 255 255 
0.0769698949156113 -0.255574222229308 0.963720415870094 0 216 255 255 
0.0028304767336663 0.133133684840575 0.991093909797207 0 216 255 255 
0.0679959702980083 0.0675990087551535 0.99539282870451 0 216 255 255 
-0.233975999213537 0.237006209841589 0.942911753078428 0 216 255 255 
0.131762793870467 0.131434287275995 0.982528907910811 0 216 255 255 
0.237627692567835 0.237006447488809 0.94199805054491 0 216 255 255 
-0.0630194091922692 -0.0632190313478518 -0.996007965896446 0 216 255 255 
-0.995695936896396 0.0678411888534453 -0.0631437665829556 0 216 255 255 
-0.995698958518742 -0.0632316687026648 0.0677148469999578 0 216 255 255 
-0.995997968204933 -0.0632162181611794 -0.0631800366547883 0 216 255 255 
0.0679038644642147 0.0677008833305 -0.995392192601497 0 216 255 255 
-0.0629813563835629 0.0676429468374006 -0.995719710140627 0 216 255 255 
-0.0629711817090167 -0.996013140991075 -0.0631855466049369 0 216 255 255 
-0.937181165321603 -0.147296228285056 0.316220185414383 0 216 255 255 
-0.146858136716244 0.316475819268135 0.937163627189617 0 216 255 255 
-0.14677687618324 -0.937989310198189 -0.314058148694031 0 216 255 255 
0.936330393109473 -0.148420060770418 0.318208737187369 0 216 255 255 
0.318901213607272 0.935420684594602 0.152610874863538 0 216 255 255 
0.318667795340077 0.936193615129446 -0.148297907410956 0 216 255 255 
0.318893922728853 0.152401344656125 -0.935457330425526 0 216 255 255 
0.152798446146793 0.318727130175913 -0.935449396555878 0 216 255 255 
-0.148549480563595 0.936144799851029 0.318694029333908 0 216 255 255 
0.152401171072819 -0.936352629484342 -0.31625552116702 0 216 255 255 
-0.148248678108626 -0.316271612710637 0.937013613707152 0 216 255 255 
0.937153837745469 -0.315859090362424 -0.14824181371462 0 216 255 255 
0.152904340699788 0.318525994195469 0.935500601253377 0 216 255 255 
-0.936239680320648 0.318429024528767 -0.148519818114215 0 216 255 255 
-0.316646393484302 0.936196947932636 0.152545909932303 0 216 255 255 
0.93554733490896 0.318559921744357 0.152547313183794 0 216 255 255 

3 0 1 2 
3 3 4 2 
3 4 0 2 
3 5 6 7 
3 6 8 7 
3 9 5 7 
3 8 9 7 
3 10 11 12 
3 11 13 12 
3 14 10 12 
3 13 14 12 
3 15 16 17 
3 16 18 17 
3 19 15 17 
3 18 19 17 
3 20 21 22 
3 21 23 22 
3 24 20 22 
3 23 24 22 
3 25 26 27 
3 28 25 27 
3 26 29 27 
3 29 28 27 
3 30 31 32 
3 33 30 32 
3 31 34 32 
3 34 33 32 
3 35 36 37 
3 38 35 37 
3 36 39 37 
3 39 38 37 
3 40 41 42 
3 43 44 42 
3 44 40 42 
3 41 43 42 
3 45 46 47 
3 48 49 50 
3 51 48 50 
3 49 52 50 
3 52 51 50 
3 53 54 55 
3 56 53 55 
3 54 57 55 
3 57 56 55 
3 58 59 60 
3 59 61 60 
3 62 58 60 
3 61 62 60 
3 63 64 65 
3 64 66 65 
3 67 63 65 
3 66 67 65 
3 36 30 68 
3 39 36 68 
3 30 33 68 
3 33 39 68 
3 69 70 71 
3 70 72 71 
3 73 69 71 
3 72 73 71 
3 74 75 76 
3 77 74 76 
3 75 78 76 
3 78 77 76 
3 79 80 81 
3 80 82 81 
3 83 79 81 
3 82 83 81 
3 84 85 86 
3 87 84 86 
3 85 88 86 
3 88 87 86 
3 89 90 91 
3 92 89 91 
3 90 93 91 
3 93 92 91 
3 94 95 96 
3 95 11 96 
3 10 94 96 
3 11 10 96 
3 97 98 99 
3 100 97 99 
3 98 101 99 
3 101 100 99 
3 102 103 104 
3 105 102 104 
3 103 106 104 
3 106 105 104 
3 107 108 109 
3 110 111 109 
3 111 107 109 
3 108 110 109 
3 112 107 113 
3 114 67 115 
3 114 116 117 
3 116 114 118 
3 63 67 117 
3 114 119 118 
3 119 114 115 
3 67 66 120 
3 116 63 117 
3 115 67 120 
3 66 121 122 
3 66 64 123 
3 14 121 123 
3 120 66 122 
3 121 14 124 
3 64 14 123 
3 125 121 124 
3 122 121 125 
3 111 126 113 
3 126 112 113 
3 107 111 113 
3 127 77 128 
3 78 1 128 
3 1 127 128 
3 129 89 130 
3 131 116 118 
3 131 132 133 
3 132 131 134 
3 135 116 133 
3 131 136 134 
3 136 131 118 
3 63 116 137 
3 132 135 133 
3 116 135 137 
3 16 15 138 
3 64 63 40 
3 63 137 40 
3 5 139 140 
3 14 64 44 
3 64 40 44 
3 14 13 124 
3 10 14 44 
3 13 11 141 
3 142 13 141 
3 124 13 142 
3 143 129 130 
3 89 92 130 
3 49 48 144 
3 132 145 146 
3 145 132 147 
3 148 135 146 
3 132 134 147 
3 137 135 149 
3 145 148 146 
3 135 148 149 
3 10 44 43 
3 94 10 43 
3 11 95 150 
3 141 11 150 
3 145 151 152 
3 151 145 153 
3 154 148 152 
3 145 147 153 
3 149 148 155 
3 151 154 152 
3 148 154 155 
3 155 156 157 
3 94 43 158 
3 157 159 158 
3 160 94 158 
3 95 161 162 
3 150 95 162 
3 154 151 163 
3 67 114 117 
3 151 153 164 
3 151 164 163 
3 154 156 155 
3 154 165 166 
3 165 154 163 
3 167 156 166 
3 156 159 157 
3 156 167 168 
3 165 167 166 
3 169 159 168 
3 159 160 158 
3 167 169 168 
3 161 160 170 
3 160 171 170 
3 162 161 172 
3 161 170 172 
3 92 143 130 
3 1 3 2 
3 167 165 173 
3 174 175 176 
3 165 163 177 
3 165 177 173 
3 169 167 178 
3 167 173 178 
3 171 169 179 
3 169 178 179 
3 170 171 180 
3 171 179 180 
3 181 182 183 
3 184 185 183 
3 185 181 183 
3 182 184 183 
3 182 186 187 
3 188 184 187 
3 184 182 187 
3 186 188 187 
3 189 190 191 
3 190 189 119 
3 192 189 193 
3 189 192 119 
3 189 194 193 
3 194 189 191 
3 190 195 196 
3 195 190 115 
3 190 119 115 
3 191 190 196 
3 195 197 198 
3 197 195 120 
3 195 115 120 
3 196 195 198 
3 197 199 200 
3 199 197 122 
3 197 120 122 
3 198 197 200 
3 199 201 202 
3 201 199 125 
3 199 122 125 
3 200 199 202 
3 201 203 204 
3 203 201 125 
3 205 201 204 
3 202 201 205 
3 206 192 193 
3 192 206 136 
3 207 206 208 
3 206 207 136 
3 206 209 208 
3 209 206 193 
3 119 192 118 
3 192 136 118 
3 203 125 124 
3 203 210 204 
3 210 203 142 
3 203 124 142 
3 210 211 212 
3 211 210 142 
3 213 210 212 
3 204 210 213 
3 136 207 134 
3 214 207 215 
3 207 214 134 
3 207 208 215 
3 211 142 141 
3 211 216 217 
3 216 211 141 
3 212 211 217 
3 134 214 147 
3 218 214 219 
3 214 218 147 
3 214 215 219 
3 216 141 150 
3 216 220 221 
3 220 216 150 
3 217 216 221 
3 147 218 153 
3 222 218 223 
3 218 222 153 
3 218 219 223 
3 220 150 162 
3 220 224 225 
3 224 220 162 
3 221 220 225 
3 153 222 164 
3 226 222 227 
3 222 226 164 
3 222 223 227 
3 164 228 163 
3 224 162 172 
3 170 229 172 
3 224 230 231 
3 230 224 172 
3 225 224 231 
3 228 226 232 
3 226 228 164 
3 226 227 233 
3 226 233 232 
3 163 228 177 
3 234 228 232 
3 228 234 177 
3 177 235 173 
3 173 236 178 
3 178 237 179 
3 229 170 180 
3 179 238 180 
3 230 229 239 
3 229 230 172 
3 229 240 239 
3 240 229 180 
3 231 230 241 
3 230 239 241 
3 235 234 242 
3 234 235 177 
3 234 232 243 
3 234 243 242 
3 236 235 244 
3 235 236 173 
3 235 242 244 
3 237 236 245 
3 236 237 178 
3 236 244 245 
3 238 237 246 
3 237 238 179 
3 237 245 246 
3 240 238 247 
3 238 240 180 
3 238 246 247 
3 239 240 248 
3 240 247 248 
3 249 250 251 
3 250 249 191 
3 249 194 191 
3 194 249 252 
3 253 249 251 
3 249 253 252 
3 250 254 255 
3 254 250 196 
3 250 191 196 
3 251 250 255 
3 254 256 257 
3 256 254 198 
3 254 196 198 
3 255 254 257 
3 256 258 259 
3 258 256 200 
3 256 198 200 
3 257 256 259 
3 258 260 261 
3 260 258 202 
3 258 200 202 
3 259 258 261 
3 260 202 205 
3 260 205 262 
3 260 263 261 
3 263 260 262 
3 194 264 193 
3 264 194 252 
3 264 209 193 
3 209 264 265 
3 264 266 265 
3 266 264 252 
3 267 205 204 
3 205 267 262 
3 267 204 213 
3 267 213 268 
3 269 267 268 
3 262 267 269 
3 209 270 208 
3 270 209 265 
3 271 270 272 
3 270 271 208 
3 273 270 265 
3 270 273 272 
3 274 213 212 
3 213 274 268 
3 274 275 276 
3 275 274 212 
3 274 277 268 
3 277 274 276 
3 208 271 215 
3 278 271 279 
3 271 278 215 
3 271 272 279 
3 275 212 217 
3 275 280 281 
3 280 275 217 
3 276 275 281 
3 215 278 219 
3 282 278 283 
3 278 282 219 
3 278 279 283 
3 280 217 221 
3 280 284 285 
3 284 280 221 
3 281 280 285 
3 219 282 223 
3 286 282 287 
3 282 286 223 
3 282 283 287 
3 284 221 225 
3 284 288 289 
3 288 284 225 
3 285 284 289 
3 223 286 227 
3 290 286 291 
3 286 290 227 
3 286 287 291 
3 288 225 231 
3 288 292 293 
3 292 288 231 
3 289 288 293 
3 227 290 233 
3 233 290 294 
3 290 295 294 
3 295 290 291 
3 233 296 232 
3 296 233 294 
3 292 231 241 
3 292 241 297 
3 239 298 241 
3 241 298 297 
3 299 292 297 
3 292 299 293 
3 232 296 243 
3 243 296 300 
3 296 294 301 
3 296 301 300 
3 243 302 242 
3 302 243 300 
3 242 303 244 
3 244 304 245 
3 245 305 246 
3 246 306 247 
3 298 239 248 
3 298 248 307 
3 247 308 248 
3 248 308 307 
3 297 298 309 
3 298 307 309 
3 303 302 310 
3 302 303 242 
3 302 311 310 
3 311 302 300 
3 304 303 312 
3 303 304 244 
3 303 310 312 
3 305 304 313 
3 304 305 245 
3 304 312 313 
3 306 305 314 
3 305 306 246 
3 305 313 314 
3 308 306 315 
3 306 308 247 
3 306 314 315 
3 316 308 315 
3 308 316 307 
3 88 317 255 
3 317 251 255 
3 251 317 318 
3 317 319 318 
3 87 88 257 
3 88 255 257 
3 320 87 259 
3 87 257 259 
3 320 259 261 
3 320 261 321 
3 322 320 321 
3 323 253 324 
3 253 323 252 
3 323 266 252 
3 266 323 325 
3 326 323 324 
3 323 326 325 
3 253 251 318 
3 324 253 318 
3 261 263 321 
3 263 327 328 
3 327 263 262 
3 321 263 328 
3 327 262 269 
3 327 269 329 
3 327 330 328 
3 330 327 329 
3 266 331 265 
3 331 266 325 
3 273 331 332 
3 331 273 265 
3 333 331 325 
3 331 333 332 
3 334 269 268 
3 269 334 329 
3 334 277 335 
3 277 334 268 
3 334 336 329 
3 336 334 335 
3 272 273 337 
3 273 332 337 
3 277 276 338 
3 335 277 338 
3 272 9 279 
3 9 272 337 
3 9 8 279 
3 5 9 337 
3 339 276 281 
3 276 339 338 
3 340 339 341 
3 342 339 281 
3 339 340 338 
3 342 343 341 
3 279 8 283 
3 8 6 344 
3 8 24 283 
3 20 24 344 
3 342 281 285 
3 343 342 345 
3 4 342 285 
3 343 340 341 
3 4 3 345 
3 283 24 287 
3 24 23 287 
3 6 20 344 
3 4 285 289 
3 0 4 289 
3 3 343 345 
3 287 23 291 
3 291 23 346 
3 23 21 346 
3 295 291 346 
3 0 289 293 
3 0 293 347 
3 293 299 347 
3 1 0 347 
3 348 295 349 
3 295 348 294 
3 295 346 349 
3 299 350 351 
3 350 299 297 
3 347 299 351 
3 294 348 301 
3 301 348 352 
3 348 353 352 
3 353 348 349 
3 301 354 300 
3 354 301 352 
3 350 297 309 
3 350 309 355 
3 307 356 309 
3 309 356 355 
3 357 350 355 
3 350 357 351 
3 311 354 358 
3 354 311 300 
3 354 359 358 
3 359 354 352 
3 310 311 360 
3 311 358 360 
3 310 361 312 
3 361 310 360 
3 312 62 313 
3 313 61 314 
3 316 315 362 
3 314 363 315 
3 315 363 362 
3 356 316 364 
3 316 356 307 
3 316 362 364 
3 365 356 364 
3 356 365 355 
3 361 18 366 
3 361 62 312 
3 58 62 366 
3 18 361 360 
3 62 61 313 
3 18 58 366 
3 61 59 367 
3 61 363 314 
3 368 363 367 
3 59 368 367 
3 363 368 362 
3 57 369 370 
3 319 369 318 
3 369 324 318 
3 324 369 371 
3 319 56 370 
3 369 57 371 
3 319 85 372 
3 56 57 370 
3 56 319 372 
3 159 156 168 
3 85 84 373 
3 372 85 373 
3 339 342 341 
3 84 322 374 
3 373 84 374 
3 106 322 375 
3 376 322 321 
3 322 106 374 
3 376 105 375 
3 376 321 328 
3 376 328 377 
3 105 106 375 
3 105 376 377 
3 326 324 371 
3 325 326 378 
3 379 326 371 
3 326 379 378 
3 328 330 377 
3 330 329 380 
3 330 381 377 
3 381 330 380 
3 333 325 378 
3 332 333 382 
3 383 333 378 
3 333 383 382 
3 329 336 380 
3 336 335 384 
3 336 385 380 
3 385 336 384 
3 332 139 337 
3 139 332 382 
3 139 386 140 
3 139 5 337 
3 386 139 382 
3 387 5 140 
3 388 335 338 
3 335 388 384 
3 340 388 338 
3 388 389 384 
3 390 72 391 
3 6 5 392 
3 386 387 140 
3 5 387 392 
3 340 343 393 
3 394 340 393 
3 395 396 397 
3 20 6 398 
3 6 392 398 
3 387 386 399 
3 343 3 400 
3 393 343 400 
3 54 53 401 
3 21 20 402 
3 20 398 402 
3 3 1 403 
3 400 3 403 
3 21 404 346 
3 83 21 402 
3 127 1 347 
3 1 78 403 
3 346 404 349 
3 349 404 405 
3 404 82 405 
3 353 349 405 
3 127 347 351 
3 127 351 406 
3 351 357 406 
3 77 127 406 
3 352 353 407 
3 353 408 407 
3 408 353 405 
3 359 352 407 
3 357 355 409 
3 355 365 409 
3 410 357 409 
3 357 410 406 
3 358 359 411 
3 359 412 411 
3 412 359 407 
3 358 19 360 
3 19 358 411 
3 365 364 413 
3 362 414 364 
3 364 414 413 
3 415 365 413 
3 365 415 409 
3 19 18 360 
3 15 19 411 
3 58 18 416 
3 18 16 416 
3 59 58 110 
3 58 416 110 
3 417 418 419 
3 368 59 108 
3 59 110 108 
3 368 414 362 
3 420 368 108 
3 414 421 413 
3 422 423 424 
3 423 425 426 
3 156 154 166 
3 371 57 427 
3 57 54 427 
3 56 372 422 
3 53 56 422 
3 374 106 425 
3 103 102 428 
3 106 103 425 
3 105 377 429 
3 102 105 429 
3 379 371 427 
3 378 379 430 
3 431 379 427 
3 379 431 430 
3 377 381 429 
3 381 380 432 
3 381 433 429 
3 433 381 432 
3 383 378 430 
3 382 383 434 
3 435 383 430 
3 383 435 434 
3 380 385 432 
3 385 384 436 
3 385 437 432 
3 437 385 436 
3 386 382 434 
3 386 175 399 
3 175 386 434 
3 174 387 399 
3 384 389 436 
3 62 361 366 
3 29 389 438 
3 389 29 436 
3 394 28 438 
3 392 387 439 
3 175 174 399 
3 387 174 439 
3 394 393 440 
3 28 29 438 
3 28 394 440 
3 83 402 45 
3 440 441 442 
3 403 78 443 
3 369 319 370 
3 79 83 45 
3 78 75 443 
3 405 82 444 
3 82 80 444 
3 408 405 444 
3 77 406 445 
3 406 410 445 
3 74 77 445 
3 407 408 446 
3 408 447 446 
3 447 408 444 
3 412 407 446 
3 410 409 448 
3 409 415 448 
3 449 410 448 
3 410 449 445 
3 411 412 450 
3 412 451 450 
3 451 412 446 
3 15 411 450 
3 415 413 452 
3 413 421 452 
3 453 415 452 
3 415 453 448 
3 454 455 456 
3 15 457 138 
3 458 16 138 
3 457 15 450 
3 416 16 459 
3 457 458 138 
3 16 458 459 
3 459 111 460 
3 416 459 460 
3 111 110 460 
3 111 459 461 
3 420 108 107 
3 420 462 463 
3 462 420 107 
3 464 421 463 
3 462 464 463 
3 421 464 452 
3 24 8 344 
3 465 466 424 
3 466 422 424 
3 423 465 424 
3 467 465 426 
3 465 423 426 
3 425 467 426 
3 135 132 146 
3 468 54 401 
3 427 54 469 
3 53 34 401 
3 54 468 469 
3 53 422 466 
3 34 468 401 
3 34 53 466 
3 33 466 465 
3 425 103 467 
3 39 465 467 
3 38 103 428 
3 103 38 467 
3 102 470 428 
3 102 429 471 
3 470 38 428 
3 470 102 471 
3 431 427 469 
3 430 431 472 
3 473 431 469 
3 431 473 472 
3 429 433 471 
3 433 432 474 
3 433 475 471 
3 475 433 474 
3 435 430 472 
3 434 435 476 
3 477 435 472 
3 435 477 476 
3 432 437 474 
3 437 436 478 
3 437 479 474 
3 479 437 478 
3 175 434 476 
3 175 480 176 
3 480 175 476 
3 481 174 176 
3 436 29 478 
3 482 483 484 
3 29 26 478 
3 439 174 485 
3 480 481 176 
3 174 481 485 
3 28 440 486 
3 25 28 486 
3 485 73 487 
3 488 486 442 
3 486 440 442 
3 441 488 442 
3 441 443 489 
3 93 486 488 
3 487 490 47 
3 46 487 47 
3 490 45 47 
3 79 45 490 
3 487 72 490 
3 491 488 489 
3 488 441 489 
3 443 491 489 
3 443 75 491 
3 92 488 491 
3 79 390 492 
3 390 79 490 
3 493 80 492 
3 75 143 491 
3 444 80 494 
3 80 493 494 
3 390 493 492 
3 447 444 494 
3 74 445 495 
3 445 449 495 
3 496 74 495 
3 446 447 497 
3 447 498 497 
3 498 447 494 
3 451 446 497 
3 449 448 499 
3 448 453 499 
3 500 449 499 
3 449 500 495 
3 450 451 501 
3 451 502 501 
3 502 451 497 
3 457 450 501 
3 453 452 503 
3 452 464 503 
3 504 453 503 
3 453 504 499 
3 418 505 506 
3 507 457 501 
3 459 458 508 
3 458 509 508 
3 508 126 461 
3 459 508 461 
3 126 111 461 
3 510 186 511 
3 508 505 126 
3 462 107 112 
3 126 418 112 
3 342 4 345 
3 417 462 112 
3 464 512 503 
3 121 66 123 
3 468 34 513 
3 514 468 513 
3 469 468 514 
3 33 34 466 
3 34 31 513 
3 39 33 465 
3 38 39 467 
3 38 470 515 
3 35 38 515 
3 515 470 516 
3 470 471 516 
3 473 469 514 
3 472 473 517 
3 518 473 514 
3 473 518 517 
3 519 514 513 
3 471 475 516 
3 520 515 516 
3 475 474 521 
3 475 522 516 
3 522 475 521 
3 477 472 517 
3 476 477 523 
3 524 477 517 
3 477 524 523 
3 474 479 521 
3 479 478 525 
3 479 526 521 
3 526 479 525 
3 480 523 527 
3 480 476 523 
3 481 480 527 
3 523 528 527 
3 525 26 529 
3 478 26 525 
3 530 525 529 
3 26 25 529 
3 481 73 485 
3 531 481 527 
3 93 25 486 
3 25 532 529 
3 73 72 487 
3 92 93 488 
3 72 390 490 
3 72 70 391 
3 533 390 391 
3 143 92 491 
3 493 390 534 
3 390 533 534 
3 70 533 391 
3 143 496 535 
3 129 143 535 
3 493 534 536 
3 494 493 536 
3 498 494 536 
3 534 537 536 
3 535 496 538 
3 496 495 538 
3 495 500 538 
3 539 535 538 
3 497 498 540 
3 498 541 540 
3 541 498 536 
3 502 497 540 
3 500 499 542 
3 499 504 542 
3 543 500 542 
3 500 543 538 
3 501 502 544 
3 502 545 544 
3 545 502 540 
3 507 544 546 
3 507 501 544 
3 544 547 546 
3 504 503 548 
3 512 549 548 
3 503 512 548 
3 549 550 548 
3 551 504 548 
3 504 551 542 
3 552 553 554 
3 509 507 546 
3 509 505 508 
3 555 509 546 
3 505 418 126 
3 505 556 506 
3 557 418 506 
3 418 417 112 
3 418 557 419 
3 556 557 506 
3 558 417 419 
3 512 417 549 
3 557 558 419 
3 417 558 549 
3 31 30 559 
3 560 31 559 
3 513 31 560 
3 30 36 561 
3 559 30 561 
3 36 35 562 
3 561 36 562 
3 562 35 563 
3 35 515 563 
3 519 518 514 
3 518 519 564 
3 565 518 564 
3 517 518 565 
3 519 513 560 
3 566 519 560 
3 519 566 564 
3 567 560 559 
3 568 559 561 
3 569 561 562 
3 515 520 563 
3 570 562 563 
3 522 520 516 
3 520 522 571 
3 520 572 563 
3 572 520 571 
3 571 522 573 
3 522 521 573 
3 524 565 574 
3 524 517 565 
3 524 528 523 
3 528 524 574 
3 565 575 574 
3 575 565 564 
3 573 526 576 
3 521 526 573 
3 577 573 576 
3 577 571 573 
3 530 526 525 
3 526 530 576 
3 527 528 578 
3 579 528 574 
3 528 579 578 
3 530 529 580 
3 530 581 576 
3 581 530 580 
3 531 578 582 
3 531 527 578 
3 80 79 492 
3 69 531 582 
3 578 583 582 
3 580 532 584 
3 529 532 580 
3 585 580 584 
3 98 97 586 
3 532 90 584 
3 69 582 587 
3 70 69 587 
3 582 588 587 
3 584 90 589 
3 590 584 589 
3 90 89 589 
3 70 587 591 
3 116 131 133 
3 533 70 591 
3 587 592 591 
3 589 89 593 
3 594 589 593 
3 89 129 593 
3 533 591 595 
3 534 533 595 
3 537 534 595 
3 591 596 595 
3 593 129 597 
3 129 535 597 
3 535 539 597 
3 598 593 597 
3 537 541 536 
3 541 537 599 
3 537 600 599 
3 600 537 595 
3 543 539 538 
3 539 543 601 
3 602 539 601 
3 539 602 597 
3 403 443 603 
3 441 400 603 
3 541 599 604 
3 540 541 604 
3 545 604 605 
3 545 540 604 
3 599 606 604 
3 604 606 605 
3 601 543 607 
3 543 542 607 
3 551 608 607 
3 542 551 607 
3 609 601 607 
3 608 609 607 
3 545 547 544 
3 547 545 605 
3 546 547 610 
3 547 611 610 
3 611 547 605 
3 555 610 612 
3 555 546 610 
3 610 613 612 
3 556 612 614 
3 612 615 614 
3 557 614 616 
3 614 617 616 
3 550 549 618 
3 558 616 618 
3 549 558 618 
3 616 619 618 
3 550 551 548 
3 551 550 608 
3 620 550 618 
3 550 620 608 
3 556 555 612 
3 557 556 614 
3 558 557 616 
3 443 441 603 
3 400 403 603 
3 400 441 621 
3 440 393 621 
3 441 440 621 
3 393 400 621 
3 374 425 622 
3 423 373 622 
3 425 423 622 
3 373 374 622 
3 567 566 560 
3 566 567 623 
3 624 566 623 
3 564 566 624 
3 568 567 559 
3 567 568 625 
3 623 567 625 
3 569 568 561 
3 568 569 626 
3 625 568 626 
3 570 569 562 
3 569 570 627 
3 626 569 627 
3 572 570 563 
3 570 572 628 
3 627 570 628 
3 628 572 629 
3 572 571 629 
3 575 624 630 
3 575 564 624 
3 631 575 630 
3 574 575 631 
3 624 632 630 
3 632 624 623 
3 633 623 625 
3 634 625 626 
3 635 626 627 
3 636 627 628 
3 629 577 637 
3 571 577 629 
3 638 629 637 
3 638 628 629 
3 637 577 639 
3 577 576 639 
3 579 631 640 
3 579 574 631 
3 579 583 578 
3 583 579 640 
3 631 641 640 
3 641 631 630 
3 639 581 642 
3 576 581 639 
3 643 639 642 
3 643 637 639 
3 585 581 580 
3 581 585 642 
3 583 640 644 
3 583 588 582 
3 588 583 644 
3 640 645 644 
3 642 585 646 
3 647 642 646 
3 590 585 584 
3 585 590 646 
3 588 644 648 
3 588 592 587 
3 592 588 648 
3 644 649 648 
3 646 590 650 
3 651 646 650 
3 594 590 589 
3 590 594 650 
3 592 648 652 
3 592 596 591 
3 596 592 652 
3 648 653 652 
3 650 594 654 
3 655 650 654 
3 598 594 593 
3 594 598 654 
3 596 652 656 
3 596 600 595 
3 600 596 656 
3 652 657 656 
3 654 598 658 
3 659 654 658 
3 602 598 597 
3 598 602 658 
3 600 656 660 
3 599 600 660 
3 606 660 661 
3 606 599 660 
3 656 662 660 
3 660 662 661 
3 658 602 663 
3 602 601 663 
3 609 664 663 
3 601 609 663 
3 665 658 663 
3 664 665 663 
3 606 661 666 
3 605 606 666 
3 611 666 667 
3 611 605 666 
3 661 668 666 
3 666 668 667 
3 613 667 669 
3 667 670 669 
3 615 669 671 
3 669 672 671 
3 617 671 673 
3 671 674 673 
3 619 673 675 
3 673 676 675 
3 664 609 677 
3 609 608 677 
3 620 675 677 
3 608 620 677 
3 678 664 677 
3 675 678 677 
3 611 613 610 
3 613 611 667 
3 613 615 612 
3 615 613 669 
3 615 617 614 
3 617 615 671 
3 617 619 616 
3 619 617 673 
3 619 620 618 
3 620 619 675 
3 633 632 623 
3 632 633 679 
3 632 680 630 
3 680 632 679 
3 634 633 625 
3 633 634 681 
3 679 633 681 
3 635 634 626 
3 634 635 682 
3 681 634 682 
3 636 635 627 
3 635 636 683 
3 682 635 683 
3 638 636 628 
3 636 638 684 
3 683 636 684 
3 685 638 637 
3 638 685 684 
3 680 641 630 
3 641 680 686 
3 641 645 640 
3 645 641 686 
3 680 679 687 
3 686 680 687 
3 679 688 687 
3 688 679 681 
3 689 681 682 
3 552 682 683 
3 684 685 690 
3 553 684 690 
3 553 683 684 
3 643 685 637 
3 685 643 691 
3 690 685 691 
3 647 643 642 
3 643 647 691 
3 645 686 692 
3 645 649 644 
3 649 645 692 
3 686 482 692 
3 482 686 687 
3 691 647 693 
3 455 691 693 
3 455 690 691 
3 651 647 646 
3 647 651 693 
3 649 692 694 
3 649 653 648 
3 653 649 694 
3 692 52 694 
3 693 651 695 
3 100 693 695 
3 655 651 650 
3 651 655 695 
3 653 694 696 
3 653 657 652 
3 657 653 696 
3 694 49 696 
3 695 655 697 
3 97 695 697 
3 659 655 654 
3 655 659 697 
3 657 696 698 
3 657 662 656 
3 662 657 698 
3 699 698 700 
3 696 701 698 
3 698 701 700 
3 697 659 702 
3 703 704 702 
3 705 697 702 
3 704 705 702 
3 665 659 658 
3 659 665 702 
3 662 699 661 
3 699 662 698 
3 699 700 706 
3 699 668 661 
3 668 699 706 
3 670 706 707 
3 700 708 706 
3 706 708 707 
3 672 707 709 
3 707 710 709 
3 674 709 711 
3 709 712 711 
3 704 703 713 
3 676 711 713 
3 714 704 713 
3 711 714 713 
3 703 665 664 
3 665 703 702 
3 678 703 664 
3 703 678 713 
3 668 670 667 
3 670 668 706 
3 670 672 669 
3 672 670 707 
3 672 674 671 
3 674 672 709 
3 674 676 673 
3 676 674 711 
3 676 678 675 
3 678 676 713 
3 689 688 681 
3 688 483 687 
3 552 689 682 
3 715 689 716 
3 552 717 716 
3 553 552 683 
3 717 552 554 
3 717 715 716 
3 553 454 554 
3 454 553 690 
3 454 717 554 
3 483 482 687 
3 52 482 484 
3 482 52 692 
3 483 51 484 
3 483 715 188 
3 51 52 484 
3 51 483 188 
3 389 394 438 
3 715 717 184 
3 188 715 184 
3 322 376 375 
3 717 454 185 
3 184 717 185 
3 455 454 690 
3 101 454 456 
3 454 101 185 
3 455 100 456 
3 100 455 693 
3 100 101 456 
3 52 49 694 
3 51 188 186 
3 48 51 186 
3 185 101 181 
3 718 182 719 
3 148 145 152 
3 101 98 181 
3 97 100 695 
3 689 552 716 
3 701 49 144 
3 49 701 696 
3 48 720 144 
3 48 186 510 
3 720 701 144 
3 720 48 510 
3 395 510 718 
3 182 718 511 
3 186 182 511 
3 718 510 511 
3 181 98 721 
3 396 718 721 
3 181 721 719 
3 182 181 719 
3 721 718 719 
3 110 416 460 
3 421 420 463 
3 722 98 586 
3 98 722 721 
3 97 705 586 
3 705 97 697 
3 705 722 586 
3 701 720 700 
3 363 61 367 
3 395 720 510 
3 720 708 700 
3 396 395 718 
3 710 395 397 
3 396 712 397 
3 722 396 721 
3 712 710 397 
3 722 705 704 
3 714 722 704 
3 708 710 707 
3 710 712 709 
3 712 714 711 
3 149 41 723 
3 40 137 723 
3 41 40 723 
3 137 149 723 
3 45 402 724 
3 398 46 724 
3 46 45 724 
3 402 398 724 
3 487 46 725 
3 439 485 725 
3 485 487 725 
3 46 439 725 
3 46 398 726 
3 392 439 726 
3 439 46 726 
3 398 392 726 
3 157 158 727 
3 43 41 727 
3 158 43 727 
3 41 157 727 
3 155 157 728 
3 41 149 728 
3 157 41 728 
3 149 155 728 
3 373 423 729 
3 422 372 729 
3 423 422 729 
3 372 373 729 
3 531 69 730 
3 69 73 730 
3 481 531 730 
3 73 481 730 
3 710 708 731 
3 395 710 731 
3 708 720 731 
3 720 395 731 
3 85 319 732 
3 88 85 732 
3 319 317 732 
3 317 88 732 
3 90 532 733 
3 93 90 733 
3 532 25 733 
3 25 93 733 
3 417 512 734 
3 512 464 734 
3 462 417 734 
3 464 462 734 
3 420 421 735 
3 421 414 735 
3 368 420 735 
3 414 368 735 
3 160 161 736 
3 161 95 736 
3 94 160 736 
3 95 94 736 
3 169 171 737 
3 171 160 737 
3 159 169 737 
3 160 159 737 
3 555 556 738 
3 556 505 738 
3 509 555 738 
3 505 509 738 
3 322 84 739 
3 320 322 739 
3 84 87 739 
3 87 320 739 
3 715 483 740 
3 689 715 740 
3 483 688 740 
3 688 689 740 
3 394 389 741 
3 340 394 741 
3 389 388 741 
3 388 340 741 
3 714 712 742 
3 722 714 742 
3 712 396 742 
3 396 722 742 
3 83 82 743 
3 82 404 743 
3 21 83 743 
3 404 21 743 
3 507 509 744 
3 509 458 744 
3 457 507 744 
3 458 457 744 
3 496 143 745 
3 74 496 745 
3 143 75 745 
3 75 74 745 
3 77 78 128 

